<svg width="17" height="17" viewBox="0 0 17 17" fill="none" xmlns="http://www.w3.org/2000/svg">
<path d="M3.99215 14.4245C3.10059 13.5329 2.49344 12.397 2.24747 11.1604C2.00149 9.92377 2.12774 8.64197 2.61026 7.4771C3.09277 6.31222 3.90987 5.31659 4.95823 4.6161C6.00659 3.91561 7.23913 3.54172 8.49998 3.54172C9.76083 3.54172 10.9934 3.91561 12.0417 4.6161C13.0901 5.31659 13.9072 6.31222 14.3897 7.4771C14.8722 8.64197 14.9985 9.92377 14.7525 11.1604C14.5065 12.397 13.8994 13.5329 13.0078 14.4245L14.0094 15.4261C14.734 14.7034 15.3086 13.8446 15.7003 12.8991C16.092 11.9536 16.2929 10.9401 16.2916 9.91667C16.2916 5.61354 12.8031 2.125 8.49998 2.125C4.19686 2.125 0.708313 5.61354 0.708313 9.91667C0.708313 12.0686 1.58027 14.0165 2.99056 15.4261L3.99215 14.4245Z" fill="#159643"/>
<path d="M12.0062 13.4229C12.6996 12.7295 13.1718 11.846 13.3631 10.8842C13.5543 9.92236 13.4561 8.92543 13.0808 8.01944C12.7055 7.11345 12.07 6.3391 11.2546 5.79429C10.4392 5.24948 9.4806 4.95869 8.49996 4.95869C7.51932 4.95869 6.56069 5.24948 5.74531 5.79429C4.92993 6.3391 4.29441 7.11345 3.91911 8.01944C3.54381 8.92543 3.44559 9.92236 3.63686 10.8842C3.82814 11.846 4.30033 12.7295 4.99371 13.4229L5.996 12.4213C5.50069 11.926 5.16337 11.295 5.02671 10.6079C4.89004 9.92093 4.96018 9.20881 5.22824 8.56165C5.49629 7.9145 5.95024 7.36136 6.53266 6.97219C7.11509 6.58303 7.79984 6.37531 8.50031 6.37531C9.20079 6.37531 9.88554 6.58303 10.468 6.97219C11.0504 7.36136 11.5043 7.9145 11.7724 8.56165C12.0405 9.20881 12.1106 9.92093 11.9739 10.6079C11.8373 11.295 11.4999 11.926 11.0046 12.4213L12.0062 13.4229Z" fill="#159643"/>
<path d="M10.0024 11.419C10.2995 11.1218 10.5019 10.7432 10.5838 10.331C10.6658 9.9188 10.6237 9.49155 10.4628 9.10328C10.302 8.71501 10.0296 8.38315 9.68018 8.14967C9.33074 7.91619 8.91991 7.79156 8.49964 7.79156C8.07937 7.79156 7.66853 7.91619 7.31909 8.14967C6.96964 8.38315 6.69727 8.71501 6.53643 9.10328C6.37558 9.49155 6.33348 9.9188 6.41544 10.331C6.4974 10.7432 6.69976 11.1218 6.99691 11.419L7.9992 10.4175C7.90011 10.3184 7.83263 10.1922 7.80528 10.0548C7.77793 9.91737 7.79195 9.77494 7.84555 9.6455C7.89916 9.51605 7.98995 9.40541 8.10644 9.32757C8.22293 9.24973 8.35988 9.20818 8.49999 9.20818C8.64009 9.20818 8.77705 9.24973 8.89354 9.32757C9.01003 9.40541 9.10082 9.51605 9.15442 9.6455C9.20803 9.77494 9.22205 9.91737 9.1947 10.0548C9.16735 10.1922 9.09986 10.3184 9.00078 10.4175L10.0024 11.419Z" fill="#159643"/>
</svg>
